HIERARCHY
ROOT Pelvis
{
	OFFSET 0.000000 0.000000 0.000000
	CHANNELS 6 Xposition Yposition Zposition Zrotation Yrotation Xrotation 
	JOINT Left_hip
	{
		OFFSET 0.067986 -0.089946 -0.007639
		CHANNELS 3 Zrotation Yrotation Xrotation
		JOINT Left_knee
		{
			OFFSET 0.036308 -0.388288 -0.004016
			CHANNELS 3 Zrotation Yrotation Xrotation
			JOINT Left_ankle
			{
				OFFSET -0.012264 -0.413250 -0.042878
				CHANNELS 3 Zrotation Yrotation Xrotation
				JOINT Left_foot
				{
					OFFSET 0.024043 -0.058563 0.118570
					CHANNELS 3 Zrotation Yrotation Xrotation
					End Site
					{
						OFFSET 0.000000 0.000000 0.000000
					}
				}
			}
		}
	}
	JOINT Right_hip
	{
		OFFSET -0.065648 -0.089374 -0.003858
		CHANNELS 3 Zrotation Yrotation Xrotation
		JOINT Right_knee
		{
			OFFSET -0.042132 -0.395021 -0.006361
			CHANNELS 3 Zrotation Yrotation Xrotation
			JOINT Right_ankle
			{
				OFFSET 0.014805 -0.413264 -0.041054
				CHANNELS 3 Zrotation Yrotation Xrotation
				JOINT Right_foot
				{
					OFFSET -0.021758 -0.049013 0.121832
					CHANNELS 3 Zrotation Yrotation Xrotation
					End Site
					{
						OFFSET 0.000000 0.000000 0.000000
					}
				}
			}
		}
	}
	JOINT Spine1
	{
		OFFSET -0.002755 0.104406 -0.022277
		CHANNELS 3 Zrotation Yrotation Xrotation
		JOINT Spine2
		{
			OFFSET 0.004136 0.129393 -0.002186
			CHANNELS 3 Zrotation Yrotation Xrotation
			JOINT Spine3
			{
				OFFSET 0.001906 0.049304 0.025578
				CHANNELS 3 Zrotation Yrotation Xrotation
				JOINT Neck
				{
					OFFSET -0.004620 0.210958 -0.044063
					CHANNELS 3 Zrotation Yrotation Xrotation
					JOINT Head
					{
						OFFSET 0.003833 0.067393 0.052435
						CHANNELS 3 Zrotation Yrotation Xrotation
						End Site
						{
							OFFSET 0.000000 0.000000 0.000000
						}
					}
				}
				JOINT Left_collar
				{
					OFFSET 0.070771 0.116689 -0.037192
					CHANNELS 3 Zrotation Yrotation Xrotation
					JOINT Left_shoulder
					{
						OFFSET 0.080652 0.031596 -0.005617
						CHANNELS 3 Zrotation Yrotation Xrotation
						JOINT Left_elbow
						{
							OFFSET 0.262654 -0.015020 -0.027939
							CHANNELS 3 Zrotation Yrotation Xrotation
							JOINT Left_wrist
							{
								OFFSET 0.250438 0.010062 -0.000990
								CHANNELS 3 Zrotation Yrotation Xrotation
								JOINT Left_palm
								{
									OFFSET 0.081198 -0.010037 -0.013706
									CHANNELS 3 Zrotation Yrotation Xrotation
									End Site
									{
										OFFSET 0.000000 0.000000 0.000000
									}
								}
							}
						}
					}
				}
				JOINT Right_collar
				{
					OFFSET -0.072972 0.115556 -0.040762
					CHANNELS 3 Zrotation Yrotation Xrotation
					JOINT Right_shoulder
					{
						OFFSET -0.082917 0.031841 -0.006673
						CHANNELS 3 Zrotation Yrotation Xrotation
						JOINT Right_elbow
						{
							OFFSET -0.252882 -0.013790 -0.020410
							CHANNELS 3 Zrotation Yrotation Xrotation
							JOINT Right_wrist
							{
								OFFSET -0.255570 0.009163 -0.005138
								CHANNELS 3 Zrotation Yrotation Xrotation
								JOINT Right_palm
								{
									OFFSET -0.080804 -0.007282 -0.010415
									CHANNELS 3 Zrotation Yrotation Xrotation
									End Site
									{
										OFFSET 0.000000 0.000000 0.000000
									}
								}
							}
						}
					}
				}
			}
		}
	}
}
MOTION
Frames: 16
Frame Time: 0.100000
-1.041119 0.021849 -0.383830 -2.673685 -30.969768 -179.991516 10.940367 6.248714 -8.977685 -7.507726 -5.406301 51.240520 -4.904947 -0.958110 5.932132 3.926341 26.505255 -21.339030 -3.087331 -7.083450 6.238875 5.495715 4.714298 6.412820 6.204219 -3.040374 -3.969404 -11.063105 -7.273531 -12.360951 2.410731 5.814130 13.800682 -1.010356 -2.970605 7.019112 1.217122 -0.209982 2.686037 18.044754 -6.692015 11.483309 12.548460 -0.933651 -8.407518 -13.421603 0.082742 1.575558 -61.074243 -3.236589 2.377819 -5.352048 -28.666458 16.875855 10.085017 5.538559 10.687720 -14.627075 -9.919411 -22.994421 -5.314062 5.562565 -6.683072 65.669141 18.943025 20.332428 -176.896482 40.836173 -142.336048 -45.694509 7.558984 -0.781373 29.041121 17.810704 -14.404837 
-1.033281 0.026534 -0.404797 -3.654260 -32.131320 -178.615060 10.432799 7.541428 -7.994896 -6.148619 -5.184738 29.836111 -6.776254 -1.006688 4.210598 9.426343 26.392389 -16.710910 -4.301473 -7.771633 9.577039 6.074914 4.325906 2.038372 7.442675 -3.236488 -4.946877 -10.960269 -6.125872 -11.118897 2.788088 5.995165 13.135905 -1.005241 -3.333566 7.548481 1.033084 -0.109414 2.667726 15.617245 -2.147035 12.339513 7.619558 -1.410071 -6.164665 -13.845575 0.243795 1.041724 -60.634359 -3.045001 2.610590 -4.528185 -26.171425 16.594876 7.267307 4.592609 12.223552 -13.986836 -9.333550 -24.381099 -3.479339 5.665161 -7.371241 64.603356 22.764416 21.272843 -175.684508 42.643053 -142.015067 -41.094909 8.167958 -1.730826 28.071267 16.811553 -14.177025 
-1.018581 0.033600 -0.421926 -4.145581 -35.325800 -176.937137 9.681889 10.354717 -5.389297 -5.065456 -3.971611 5.518900 -8.392967 -1.869378 4.182183 12.784307 25.539787 -12.581728 -5.045690 -9.040331 12.076187 6.716338 2.554479 -1.096339 7.309479 -2.752180 -6.211193 -8.177591 -5.939902 -10.051946 3.337441 5.612296 12.435385 -0.768058 -3.741611 7.686151 1.143853 -0.235952 2.547212 13.873033 0.296611 13.565538 4.304115 -1.622485 -4.639517 -14.215552 0.840540 0.436962 -60.626531 -3.530303 2.852880 -3.485641 -25.073978 14.883635 5.409632 3.944418 11.576040 -13.191103 -8.417864 -24.962057 -2.129128 4.884094 -7.565908 64.318938 25.019736 21.951756 -174.554799 43.362872 -142.389998 -36.704043 7.893967 -5.068920 26.519044 15.519027 -13.111105 
-0.995364 0.040330 -0.436216 -3.967001 -38.872357 -175.881225 7.529487 13.061731 -6.141335 -4.340673 4.094763 -2.280237 -7.397559 0.486605 3.999709 12.800591 24.152886 -11.037836 -4.382129 -9.457387 12.682728 6.078999 0.275322 -0.216506 5.423479 -2.909332 -8.201273 -4.680341 -6.956814 -9.524764 3.947483 5.201226 12.804024 -0.361961 -4.001960 6.814427 1.389895 -0.292471 2.252163 12.381239 0.353668 14.814988 2.810828 -0.506492 -3.763786 -14.300245 0.970391 0.637747 -60.898559 -3.606799 2.609545 -2.727632 -26.347640 14.811567 3.638761 3.350146 11.218544 -12.261668 -7.653428 -24.605313 -1.463973 4.671524 -7.091806 64.511337 26.199451 22.125641 -173.573135 43.707897 -141.534028 -34.191012 8.111186 -5.852126 24.499593 14.610011 -12.360316 
-0.959587 0.049443 -0.454272 -4.026254 -40.634123 -176.174324 6.218242 12.529667 -4.917821 -4.232672 5.259745 -0.019596 -4.725487 1.505385 2.721148 11.078810 23.915084 -10.378985 -5.215206 -9.981136 15.796126 5.308702 -0.130398 0.321174 3.853681 -3.304733 -9.967602 -1.928478 -7.666657 -9.422372 3.784188 6.139241 12.259304 -0.110497 -3.745298 8.121861 1.372009 0.160697 2.288835 12.112455 0.937223 15.914087 1.598139 0.062398 -3.227197 -14.094544 0.747872 0.619683 -60.415649 -3.768275 2.652017 -2.687317 -28.068164 16.080564 2.928631 3.476013 10.377850 -12.234669 -7.220907 -23.413498 -0.742608 5.513674 -6.881627 64.452016 27.413898 22.064750 -171.912323 43.939198 -139.257480 -33.131766 7.697173 -3.871423 23.933923 14.609799 -12.424556 
-0.910400 0.057361 -0.473302 -6.017962 -41.198673 -175.431679 4.321979 10.726389 -1.577140 -4.870457 3.501207 0.715306 -3.218641 2.459514 3.340226 9.075190 24.069860 -10.351890 -7.860927 -9.456700 17.475961 3.432156 -0.894371 4.809454 3.673990 -3.957619 -11.676850 -0.526667 -8.447237 -10.639305 2.576570 7.150988 10.838212 -0.557505 -2.890555 9.359485 0.719857 0.715794 2.198229 11.755544 1.524589 17.617253 0.356880 0.133804 -2.328258 -13.754086 0.915306 0.661326 -59.726483 -4.038434 2.695800 -2.199943 -27.405759 14.619100 2.550285 3.912126 9.251689 -11.398131 -5.912583 -21.769407 0.054880 6.237471 -6.756143 66.374297 27.399907 23.921645 -170.936598 44.138750 -138.100643 -31.494562 6.881480 -2.942778 21.840755 13.784776 -11.972726 
-0.861532 0.062365 -0.487199 -8.291789 -42.884172 -175.184476 2.009824 10.892468 3.515925 -5.887686 0.104911 0.175477 0.359545 2.021326 -0.161967 5.824630 25.276317 -10.552114 -11.085994 -9.195751 14.391181 1.508727 -2.207207 19.231354 5.235012 -5.091952 -10.860146 -0.457766 -7.548948 -14.126107 1.762605 6.742588 10.829606 -0.982462 -1.547559 9.701836 -0.033349 0.855576 2.186708 11.812388 2.797222 18.498710 -1.968045 0.941350 -0.930438 -13.245291 0.845777 0.731918 -59.026329 -4.680188 2.223099 -2.887348 -26.106711 14.657985 1.700129 4.304434 9.016743 -10.379163 -4.868571 -21.068790 0.313332 6.985171 -7.089391 67.855274 27.383457 25.667549 -169.975363 44.520654 -138.386852 -30.507796 6.406655 -2.907835 20.414267 13.172785 -11.488604 
-0.820557 0.064538 -0.497588 -9.974158 -47.787822 -175.637024 1.341718 11.303304 9.883327 -6.212538 -5.042070 -3.104771 2.448942 1.001544 -0.903332 4.481829 26.001744 -11.254535 -13.179168 -8.908749 6.913194 1.006073 -2.773563 39.698506 7.445164 -7.252994 -0.479318 -2.064972 -5.190451 -18.637528 1.748721 4.604737 11.481822 -0.572684 -0.337225 10.009836 -0.353277 0.305522 2.268037 10.864018 3.834411 18.749577 -4.622081 2.725552 0.635095 -12.160975 0.103662 1.552681 -59.038617 -5.581014 2.374388 -3.734943 -27.676056 15.846498 1.602940 4.514223 7.779412 -10.836707 -5.228454 -22.993367 -0.192184 7.936274 -7.501761 68.756767 27.540223 27.153324 -168.629381 44.554649 -139.210117 -29.269464 5.901705 -4.282905 20.641417 12.931936 -12.049711 
-0.792198 0.066750 -0.508957 -12.590738 -53.991812 -174.063350 0.600338 10.360424 12.956229 -5.570997 -9.859983 -4.116501 3.653242 0.638644 -1.393920 2.847094 25.578271 -11.979275 -11.264188 -6.269509 -2.084213 1.365962 -2.659814 52.885225 5.191010 -7.855456 0.484570 0.180373 -4.852296 -18.678100 1.726357 2.340548 13.433232 -0.330177 0.667537 8.900831 -0.566266 -0.157864 2.232052 10.062971 5.614886 18.437132 -6.852948 3.505620 1.755304 -11.563776 -0.197013 1.400565 -58.231502 -6.174481 2.847510 -2.172549 -30.848002 15.955734 0.803292 3.838543 6.854834 -10.331600 -4.473332 -23.651763 -0.180918 8.654532 -8.004408 69.503705 28.179108 28.409880 -167.277150 44.857814 -138.144235 -27.082306 5.516108 -7.012553 19.377304 11.707913 -11.310706 
-0.769883 0.068651 -0.523929 -17.149071 -61.251236 -169.392271 0.300352 9.363847 13.357919 -4.929356 -14.138876 -3.328575 2.609827 -0.793083 -2.239830 2.136494 24.420703 -12.181524 -8.167025 -3.013661 -9.234588 1.504490 -1.080446 48.444253 4.936382 -5.832136 -2.673954 0.141999 -5.734551 -16.203718 1.896562 0.575663 15.270209 -0.502154 0.818251 7.565210 -0.408839 -0.385149 2.167547 8.933018 7.352655 18.673275 -7.245278 4.077554 1.484397 -10.545424 -0.605628 1.191862 -58.062751 -6.188222 3.839041 -0.351956 -34.580947 14.952409 0.504479 2.557795 4.958477 -9.951585 -3.673871 -22.560962 -1.109886 9.092769 -8.274110 70.276366 28.421040 28.831429 -166.252353 44.652198 -137.969220 -25.309493 5.220820 -12.042281 18.674246 10.878792 -10.131812 
-0.747104 0.073687 -0.542901 -25.295386 -68.293141 -160.535297 0.773839 8.172905 13.147193 -4.874239 -18.302404 -2.628838 1.024859 -2.960727 -4.100805 1.709862 22.784212 -10.597478 -6.943484 0.206082 -12.150496 2.656477 4.383752 30.212123 8.175759 -0.779365 -2.626676 -3.001170 -5.789813 -12.574742 1.987462 -0.070644 15.760392 0.068511 0.062470 7.912896 0.073476 -0.655909 2.107010 7.445994 8.793972 17.405380 -7.742992 2.832162 1.456166 -10.450384 -0.905186 0.819599 -57.889926 -5.748747 4.850031 0.757327 -36.665123 14.985128 -0.641770 1.323724 4.411837 -11.570084 -4.025824 -21.075409 0.053866 9.015665 -8.799698 66.982320 30.229250 27.198200 -166.201698 44.663126 -137.918871 -21.414384 5.519220 -14.230566 20.332438 11.299077 -9.599013 
-0.713203 0.081544 -0.569816 -44.145518 -75.006393 -142.771454 1.944571 7.219981 14.648966 -5.034246 -22.957313 -0.238843 0.546241 -5.161612 -6.627465 1.016800 22.523283 -9.928219 -7.263018 1.673862 -8.333381 3.880250 10.353795 13.237308 12.668045 5.164327 3.483744 -4.011165 -7.449103 -10.674797 2.565766 -0.041384 15.626127 0.490725 -1.366973 9.341924 0.361285 -0.914949 2.178280 6.074218 9.324962 18.256066 -8.245369 1.956049 0.259930 -9.700740 -0.782720 0.647664 -58.703477 -5.518289 5.116979 -0.139378 -33.816318 15.320287 -0.923298 0.929825 5.601265 -13.754161 -4.897408 -20.782216 -0.043085 8.302346 -9.735164 67.970497 31.212960 27.854047 -165.748900 45.240171 -137.460367 -21.736490 5.283089 -12.388322 24.111241 13.255400 -10.792434 
-0.674308 0.089268 -0.598121 -68.333468 -77.891820 -118.953562 1.467499 5.751830 10.633301 -6.809496 -25.433350 12.464364 1.109789 -5.413778 -10.616551 2.572044 22.610414 -12.139993 -7.696996 -1.261705 -5.713545 5.311587 8.826270 16.751588 10.212593 4.164975 -2.456009 -4.802574 -7.300102 -10.069682 4.505344 0.769501 14.758671 0.740106 -1.445491 8.496716 0.197119 -0.468985 3.031867 5.640922 9.021981 19.073641 -9.618852 1.742870 2.152627 -9.619643 0.050513 0.756009 -60.040434 -4.178595 4.464328 -1.249852 -30.100345 17.101187 -0.949953 2.062077 5.575005 -14.371159 -4.874562 -20.197416 -0.307984 8.058189 -9.877200 67.533707 31.329077 26.715086 -166.499428 45.857849 -137.689105 -21.943656 5.348728 -11.501623 24.160470 13.389545 -10.284701 
-0.642569 0.091136 -0.621150 -103.214289 -78.213367 -84.164220 2.387913 4.260541 1.309748 -11.332900 -20.040771 30.080394 -2.136540 -6.868039 -7.272443 4.343846 22.687362 -15.676285 -7.451289 -3.229888 -1.111012 5.615744 6.656165 14.331455 7.774052 2.223560 -5.296140 -5.562411 -7.555408 -9.872073 5.835322 1.913441 14.516618 1.754092 -2.365830 7.550011 0.769520 -0.634570 3.405270 4.842238 7.634321 19.272435 -10.292767 2.427746 3.186145 -9.786984 1.921023 1.631475 -62.377828 -2.807512 4.256815 -1.699177 -29.217635 18.565912 -2.758064 2.004810 3.304029 -13.766241 -4.423075 -19.563860 -0.317777 6.705725 -9.940950 65.860195 31.958202 25.524548 -166.462544 45.616632 -138.048843 -21.036644 5.246493 -13.911253 22.896292 12.281697 -8.808563 
-0.618575 0.088994 -0.634879 -121.742829 -75.440622 -65.598454 3.626446 4.674574 -6.436262 -12.865273 -13.658348 40.720672 -5.040576 -8.146030 -2.897353 4.504283 21.956106 -17.380903 -8.195649 -5.779754 3.754062 5.392143 4.990419 9.312146 5.790760 2.853844 -5.312447 -3.774429 -9.506711 -9.433068 6.575485 3.504034 15.039577 1.801961 -3.222048 7.409368 0.867504 -0.418698 3.194699 3.107185 6.621826 19.785735 -9.747083 2.860392 2.541584 -9.773792 1.892758 2.492170 -63.225815 -0.954961 4.105419 -3.385593 -28.957985 21.827510 -3.424369 1.278761 3.299384 -14.321905 -4.363250 -19.718855 -0.675112 6.727513 -9.221843 65.430647 32.538248 24.210423 -167.161436 45.658753 -138.141867 -21.179065 5.036592 -14.135360 22.956538 12.372749 -8.459062 
-0.597942 0.089145 -0.639372 -130.216673 -72.773229 -56.611352 5.210225 4.874010 -10.533615 -9.654922 -8.574909 40.334519 -4.410346 -4.209808 -2.634198 6.980647 22.467493 -16.394274 -8.774644 -6.668985 6.269665 5.342673 4.331457 7.134023 4.716618 1.497751 -6.416533 -2.714058 -10.799459 -9.122527 6.412772 4.659900 15.509307 1.420852 -2.787836 7.195819 0.986524 0.038570 3.495347 2.722622 6.305371 19.420222 -9.914326 3.345059 2.159836 -10.213612 3.204279 2.456460 -63.855119 -0.591164 4.484903 -3.849243 -28.994119 23.119632 -3.629214 1.925184 3.264948 -14.140334 -4.294669 -20.385805 -0.814803 6.339710 -8.881318 64.726715 33.408502 24.401154 -166.898415 45.656207 -138.289810 -21.223352 4.888864 -14.926263 22.569298 12.096232 -9.587257 
